<svg width="24" height="24" viewBox="0 0 24 24" fill="none" xmlns="http://www.w3.org/2000/svg">
<path d="M 10.9 22.8 C 10.4 22.8 10 22.6 9.5 22.4 C 8.6 21.9 8.1 21 8.1 20 V 14.6 C 8.1 14.1 7.8 13.4 7.5 13 L 3.7 9 C 3 8.4 2.5 7.3 2.5 6.5 V 4.1 C 2.5 2.5 3.8 1.3 5.3 1.3 H 18.7 C 20.2 1.3 21.4 2.5 21.4 4 V 6.3 C 21.4 7.3 20.8 8.5 20.2 9.1 C 19.9 9.4 19.4 9.4 19.1 9.1 C 18.8 8.8 18.8 8.3 19.1 8.1 C 19.5 7.7 19.9 6.9 19.9 6.3 V 4 C 19.9 3.3 19.4 2.8 18.7 2.8 H 5.3 C 4.6 2.8 4 3.4 4 4.1 V 6.5 C 4 6.8 4.3 7.6 4.7 8 L 8.6 12 C 9.1 12.6 9.6 13.7 9.6 14.6 V 20 C 9.6 20.6 10 21 10.2 21.1 C 10.7 21.3 11.2 21.3 11.6 21.1 L 13 20.2 C 13.3 19.9 13.8 20.1 14 20.4 C 14.2 20.8 14.1 21.2 13.8 21.4 L 12.4 22.4 C 11.9 22.6 11.4 22.8 10.9 22.8 Z" fill="white"/>
<path d="M 31.6 20 C 31.6 20 31.5 19.9 31.4 19.9 C 30.1 19.6 29.1 18.5 28.7 17.2 C 28.6 16.8 28.8 16.4 29.2 16.3 C 29.6 16.1 30 16.4 30.1 16.8 C 30.4 17.6 31 18.2 31.8 18.5 C 32.2 18.6 32.5 19 32.3 19.4 C 32.3 19.7 32 20 31.6 20 Z" fill="white"/>
<path d="M 18.8 12.1 L 16.5 14.3 L 14.2 12.1 L 13.5 12.9 L 15.7 15 L 13.5 17.1 L 14.2 17.8 L 16.5 15.7 L 18.8 17.8 L 19.6 17.1 L 17.3 15 L 19.6 12.9 L 18.8 12.1 Z" fill="white"/>
</svg>
