<svg xmlns="http://www.w3.org/2000/svg" viewBox="0 0 24 24" width="24" height="24" fill="none" stroke="orange" stroke-width="2" stroke-linecap="round" stroke-linejoin="round">
  <!-- Arrow -->
  <path transform="matrix(-1.1,0,0,-1.3,21.5,28.4)" d="M 12.1 11.2 C 15.4 11.2 18.1 13 18.1 15.3 C 18.1 17.5 15.4 19.3 12.1 19.3"/>
    <path transform="matrix(-1.1,0,0,-1.3,25.1,24.9)" d="M 11.1 16.4 h 5.5 M 13.8 14.5 l -2.7 1.9 l 2.7 1.9"/>
    <path transform="matrix(1.1,0,0,1.3,5.2,-12.3)" d="M 8.5 16.4 C 11.8 16.4 14.5 18.2 14.5 20.5 C 14.5 22.7 11.8 24.5 8.5 24.5"/>
    <path transform="matrix(1.1,0,0,1.3,2.2,-10.2)" d="M 6.9 22.9 h 5.5 M 9.7 21 l -2.7 1.9 l 2.7 1.9"/>
</svg>
